<mxfile host="app.diagrams.net" agent="Mozilla/5.0 (X11; Linux x86_64; rv:124.0) Gecko/20100101 Firefox/124.0" version="24.7.14">
  <diagram name="Page-1" id="jR3CGgP1g1BjzRoQCqm1">
    <mxGraphModel dx="1175" dy="613" grid="1" gridSize="10" guides="1" tooltips="1" connect="1" arrows="1" fold="1" page="1" pageScale="1" pageWidth="850" pageHeight="1100" math="0" shadow="0">
      <root>
        <mxCell id="0" />
        <mxCell id="1" parent="0" />
        <mxCell id="RLlSU3_BGVDVM2KfrkIX-8" value="" style="edgeStyle=orthogonalEdgeStyle;rounded=0;orthogonalLoop=1;jettySize=auto;html=1;fontFamily=Verdana;" edge="1" parent="1" source="RLlSU3_BGVDVM2KfrkIX-1" target="RLlSU3_BGVDVM2KfrkIX-2">
          <mxGeometry relative="1" as="geometry" />
        </mxCell>
        <mxCell id="RLlSU3_BGVDVM2KfrkIX-1" value="Start" style="ellipse;whiteSpace=wrap;html=1;fontFamily=Verdana;fontSize=17;" vertex="1" parent="1">
          <mxGeometry x="340" y="150" width="100" height="60" as="geometry" />
        </mxCell>
        <mxCell id="RLlSU3_BGVDVM2KfrkIX-9" value="" style="edgeStyle=orthogonalEdgeStyle;rounded=0;orthogonalLoop=1;jettySize=auto;html=1;fontFamily=Verdana;" edge="1" parent="1" source="RLlSU3_BGVDVM2KfrkIX-2" target="RLlSU3_BGVDVM2KfrkIX-5">
          <mxGeometry relative="1" as="geometry" />
        </mxCell>
        <mxCell id="RLlSU3_BGVDVM2KfrkIX-2" value="Read Speed (in km/s)" style="shape=parallelogram;perimeter=parallelogramPerimeter;whiteSpace=wrap;html=1;fixedSize=1;fontFamily=Verdana;" vertex="1" parent="1">
          <mxGeometry x="290" y="260" width="200" height="60" as="geometry" />
        </mxCell>
        <mxCell id="RLlSU3_BGVDVM2KfrkIX-10" value="" style="edgeStyle=orthogonalEdgeStyle;rounded=0;orthogonalLoop=1;jettySize=auto;html=1;fontFamily=Verdana;" edge="1" parent="1" source="RLlSU3_BGVDVM2KfrkIX-5" target="RLlSU3_BGVDVM2KfrkIX-6">
          <mxGeometry relative="1" as="geometry" />
        </mxCell>
        <mxCell id="RLlSU3_BGVDVM2KfrkIX-5" value="Result = Speed * 60 * 60 / 1.609344" style="rounded=0;whiteSpace=wrap;html=1;fontFamily=Verdana;" vertex="1" parent="1">
          <mxGeometry x="260" y="350" width="260" height="60" as="geometry" />
        </mxCell>
        <mxCell id="RLlSU3_BGVDVM2KfrkIX-11" value="" style="edgeStyle=orthogonalEdgeStyle;rounded=0;orthogonalLoop=1;jettySize=auto;html=1;fontFamily=Verdana;" edge="1" parent="1" source="RLlSU3_BGVDVM2KfrkIX-6" target="RLlSU3_BGVDVM2KfrkIX-7">
          <mxGeometry relative="1" as="geometry" />
        </mxCell>
        <mxCell id="RLlSU3_BGVDVM2KfrkIX-6" value="Print Result" style="shape=parallelogram;perimeter=parallelogramPerimeter;whiteSpace=wrap;html=1;fixedSize=1;fontFamily=Verdana;" vertex="1" parent="1">
          <mxGeometry x="320" y="440" width="140" height="60" as="geometry" />
        </mxCell>
        <mxCell id="RLlSU3_BGVDVM2KfrkIX-7" value="End" style="ellipse;whiteSpace=wrap;html=1;fontFamily=Verdana;fontSize=17;" vertex="1" parent="1">
          <mxGeometry x="340" y="550" width="100" height="60" as="geometry" />
        </mxCell>
      </root>
    </mxGraphModel>
  </diagram>
</mxfile>
